<?xml version="1.0" standalone="no"?>
<!DOCTYPE svg PUBLIC "-//W3C//DTD SVG 20010904//EN"
 "http://www.w3.org/TR/2001/REC-SVG-20010904/DTD/svg10.dtd">
<svg version="1.0" xmlns="http://www.w3.org/2000/svg"
 width="2400" height="1428" viewBox="836 1296 2400 1428"
 preserveAspectRatio="xMidYMid meet">

<g transform="translate(0.000000,4096.000000) scale(0.100000,-0.100000)"
fill="currentColor" stroke="none">
<path d="M13505 27595 c-89 -17 -126 -33 -201 -88 -64 -47 -140 -140 -181
-222 -52 -102 -156 -354 -203 -490 -27 -77 -58 -164 -69 -192 -11 -29 -17 -53
-13 -53 4 0 1591 0 3527 0 3029 0 3555 2 3770 15 424 26 806 60 1175 105 85
10 200 22 255 25 55 4 159 16 230 26 72 11 171 21 220 24 l90 5 -108 -30
c-446 -123 -832 -417 -1128 -860 -88 -130 -348 -648 -622 -1235 -212 -456
-246 -527 -542 -1135 -97 -201 -215 -446 -260 -545 -45 -99 -125 -270 -178
-380 -130 -274 -261 -560 -308 -678 -80 -198 -126 -442 -107 -562 32 -204 224
-327 513 -327 188 1 614 51 905 107 69 13 296 56 505 95 209 39 416 78 460 86
131 25 646 140 897 199 783 187 770 183 1408 368 940 272 1707 575 2094 827
112 73 241 190 234 212 -4 10 -390 14 -1899 18 l-1894 5 -96 27 c-159 44 -231
91 -277 183 -49 98 -56 203 -22 325 12 41 89 232 172 425 83 192 164 382 181
420 117 279 326 763 377 875 71 156 140 263 239 373 151 169 285 268 470 348
122 52 204 74 396 104 l160 25 1773 0 1773 0 126 98 c69 53 190 146 267 207
78 60 242 185 366 277 124 93 261 197 305 232 69 54 516 392 898 678 64 49
117 91 117 93 0 3 -3538 5 -7862 4 -6442 -1 -7876 -3 -7933 -14z"/>
<path d="M15921 25963 c-8 -3 36 -16 98 -29 265 -53 483 -145 869 -367 207
-120 514 -320 679 -443 134 -100 303 -246 303 -261 0 -7 -18 -61 -41 -120 -23
-60 -79 -218 -124 -353 -46 -135 -102 -295 -125 -355 -121 -317 -266 -791
-315 -1033 -13 -64 -32 -190 -41 -279 -30 -266 -3 -463 90 -658 23 -49 70
-124 102 -165 33 -41 76 -99 96 -129 25 -36 79 -87 169 -158 153 -120 416
-313 427 -313 5 0 13 66 20 148 29 384 58 483 257 882 130 261 279 574 400
840 26 58 96 202 155 320 138 277 459 944 498 1035 16 39 106 230 200 425 93
195 190 400 215 455 62 138 177 419 177 431 0 7 -136 15 -402 22 -452 13 -861
27 -1233 43 -137 5 -403 14 -590 19 -187 5 -509 16 -715 24 -429 16 -1148 28
-1169 19z"/>
<path d="M8860 18704 c0 -14 -92 -403 -106 -446 -5 -17 28 -18 605 -18 336 0
611 -4 611 -8 0 -11 -87 -391 -145 -632 -24 -102 -69 -306 -99 -455 -31 -148
-84 -389 -120 -535 -36 -146 -62 -267 -59 -270 2 -3 148 -7 323 -8 l319 -4 5
24 c3 12 37 154 75 313 38 160 81 344 95 410 14 66 54 248 90 405 36 157 86
392 113 522 l48 238 605 2 604 3 17 45 c16 42 79 307 95 393 l6 37 -1541 0
c-1393 0 -1541 -2 -1541 -16z"/>
<path d="M12790 18688 c-6 -18 -20 -76 -30 -128 -10 -52 -37 -180 -60 -285
-23 -104 -53 -251 -66 -325 -14 -74 -56 -263 -94 -420 -38 -157 -74 -314 -80
-350 -6 -36 -35 -164 -65 -285 -73 -300 -119 -529 -111 -550 6 -16 29 -17 311
-13 168 2 308 7 311 11 4 3 17 50 30 104 27 112 179 771 189 821 l7 32 816 0
c449 0 874 -3 945 -7 l127 -6 -6 -60 c-3 -34 -8 -65 -11 -70 -3 -4 -11 -36
-18 -70 -8 -34 -36 -162 -64 -284 -64 -285 -94 -442 -86 -460 5 -14 45 -15
305 -11 177 2 304 8 310 14 14 14 168 678 249 1076 22 108 54 250 70 315 34
135 99 426 131 588 12 61 35 164 51 230 16 66 29 130 29 142 l0 23 -319 0
c-296 0 -320 -1 -325 -17 -3 -10 -13 -56 -21 -103 -9 -47 -36 -170 -61 -275
-25 -104 -62 -266 -82 -360 l-37 -170 -942 -3 c-857 -2 -943 -1 -943 14 0 9
29 151 65 317 63 292 110 512 121 570 l6 27 -320 0 -320 0 -12 -32z"/>
<path d="M16911 18683 c-6 -21 -55 -241 -110 -490 -55 -248 -121 -532 -145
-630 -25 -98 -54 -227 -66 -288 -12 -60 -34 -166 -50 -235 -24 -99 -81 -363
-146 -671 -6 -26 -6 -26 78 -32 153 -12 543 -8 560 6 11 8 42 127 97 377 45
201 81 369 81 373 0 4 236 7 524 7 l523 0 114 -130 c115 -132 136 -157 302
-375 130 -168 190 -231 242 -250 38 -15 84 -17 373 -14 182 2 334 7 338 11 4
4 -11 27 -32 50 -22 24 -86 102 -144 173 -88 109 -324 395 -422 511 l-27 32
117 5 c135 6 215 24 327 76 131 61 243 169 309 296 37 74 91 271 142 520 49
246 53 313 24 409 -25 79 -69 139 -139 188 -74 52 -156 76 -328 98 -139 18
-224 20 -1340 20 l-1192 0 -10 -37z m2292 -466 c26 -11 57 -31 68 -45 19 -24
21 -36 16 -122 -6 -118 -53 -303 -91 -360 -31 -47 -98 -83 -183 -99 -77 -15
-1709 -16 -1705 -1 1 6 5 39 9 73 3 34 9 67 13 72 7 9 46 169 95 390 8 39 17
80 20 93 l6 23 852 -3 c800 -3 855 -4 900 -21z"/>
<path d="M20987 18713 c-2 -5 -12 -44 -22 -88 -9 -44 -34 -141 -55 -215 -39
-140 -174 -714 -184 -785 l-6 -40 14 45 c7 25 42 170 77 322 34 153 65 276 67
273 9 -8 -106 -512 -188 -825 -89 -341 -124 -519 -117 -605 8 -111 35 -210 70
-262 79 -117 238 -180 510 -202 161 -14 1447 -14 1688 -1 374 21 525 75 700
249 160 159 163 168 450 1415 33 143 71 304 84 358 14 54 37 151 51 215 13 65
27 126 30 136 5 16 -13 17 -312 15 l-318 -3 -63 -255 c-34 -140 -83 -347 -108
-460 -25 -113 -65 -286 -90 -385 -25 -99 -54 -238 -65 -310 -46 -287 -80 -369
-186 -438 -87 -58 -110 -60 -704 -65 -532 -4 -850 6 -943 29 -20 6 -53 24 -72
40 -66 58 -70 154 -15 339 33 107 112 446 200 850 27 124 69 315 94 425 25
110 46 208 46 218 0 16 -22 17 -314 17 -173 0 -317 -3 -319 -7z m-90 -425 c-3
-8 -6 -5 -6 6 -1 11 2 17 5 13 3 -3 4 -12 1 -19z m-10 -40 c-3 -8 -6 -5 -6 6
-1 11 2 17 5 13 3 -3 4 -12 1 -19z"/>
<path d="M25580 18710 c-139 -9 -219 -29 -326 -80 -146 -70 -233 -186 -309
-410 -30 -89 -82 -333 -91 -428 -8 -87 15 -180 61 -248 60 -87 118 -118 297
-158 180 -39 264 -46 978 -76 662 -28 883 -46 926 -75 13 -8 28 -24 35 -36 18
-35 13 -148 -11 -211 -41 -110 -90 -158 -181 -177 -34 -8 -409 -11 -1169 -11
l-1120 0 -5 -22 c-65 -288 -89 -386 -96 -406 -5 -14 -7 -28 -3 -31 3 -3 549
-6 1212 -6 1271 0 1316 1 1491 46 123 31 195 72 286 163 76 76 84 87 119 181
69 183 126 445 126 582 0 260 -129 378 -458 422 -170 23 -440 41 -917 61 -780
33 -835 37 -872 72 -39 36 -47 89 -28 177 10 42 23 88 31 102 19 38 68 76 112
89 24 6 399 10 1098 10 l1060 0 22 68 c18 56 92 381 92 404 0 10 -2208 7
-2360 -2z"/>
<path d="M28905 18563 c-21 -87 -47 -195 -60 -240 l-23 -83 605 0 605 0 -5
-22 c-3 -13 -26 -126 -52 -253 -25 -126 -74 -349 -109 -495 -207 -861 -268
-1122 -262 -1127 8 -8 343 -12 485 -6 l174 8 67 310 c37 171 90 412 118 537
29 125 66 292 82 372 17 80 50 228 74 328 24 101 52 220 61 266 l18 82 608 0
c570 0 608 1 613 18 6 19 106 452 106 458 0 2 -690 4 -1534 4 l-1534 0 -37
-157z"/>
<path d="M13710 15314 c-163 -25 -223 -49 -284 -114 -75 -80 -93 -190 -98
-590 -1 -183 1 -223 16 -267 23 -70 91 -144 157 -172 120 -52 145 -54 737 -58
l552 -4 0 120 0 121 -422 0 c-458 1 -609 9 -667 37 -58 29 -63 58 -59 338 4
270 7 283 72 318 40 22 49 22 559 25 l517 3 0 118 c0 115 -1 119 -22 125 -24
6 -1015 6 -1058 0z"/>
<path d="M15957 15314 c-4 -4 -7 -277 -7 -606 l0 -598 163 2 162 3 0 600 0
600 -156 3 c-85 1 -158 -1 -162 -4z"/>
<path d="M17454 15311 c-2 -2 -4 -274 -4 -603 l0 -599 158 3 157 3 5 418 5
419 25 -27 c49 -53 339 -314 545 -492 116 -100 246 -213 289 -252 l78 -71 174
0 174 0 0 605 0 605 -155 0 -155 0 0 -420 c0 -231 -2 -420 -5 -420 -15 0 -550
474 -824 729 l-114 106 -174 0 c-96 0 -177 -2 -179 -4z"/>
<path d="M20229 15313 c0 -5 0 -276 0 -603 l1 -595 720 -3 720 -2 0 120 0 120
-570 0 -570 0 0 130 0 130 495 0 495 0 0 110 0 110 -492 2 -493 3 0 120 0 120
553 3 552 2 0 120 0 120 -705 0 c-388 0 -705 -3 -706 -7z"/>
<path d="M22866 15311 c-4 -6 -9 -968 -6 -1188 0 -10 38 -13 156 -13 l156 0
-4 435 c-2 310 0 431 8 422 6 -7 53 -64 105 -127 124 -152 382 -455 427 -502
l36 -38 87 0 86 0 112 130 c223 260 488 546 497 537 3 -3 0 -60 -6 -128 -6
-70 -10 -255 -8 -424 l3 -300 155 0 155 0 0 600 0 599 -22 -1 c-13 0 -97 -1
-187 -2 l-165 -1 -118 -132 c-66 -73 -198 -225 -294 -338 -97 -113 -182 -211
-191 -218 -18 -14 -55 23 -223 223 -55 66 -138 165 -185 220 -47 55 -114 135
-149 178 l-62 77 -179 0 c-98 0 -181 -4 -184 -9z"/>
<path d="M26572 15283 c-33 -48 -284 -451 -372 -598 -46 -77 -142 -232 -212
-344 -70 -112 -128 -207 -128 -212 0 -5 74 -9 165 -9 l164 0 58 96 c32 53 67
107 77 121 l20 26 420 -6 c400 -6 422 -8 436 -26 8 -11 37 -58 65 -106 27 -48
58 -91 68 -96 21 -12 297 -25 321 -16 15 6 15 9 0 38 -52 101 -381 637 -566
921 -49 76 -98 160 -110 188 l-21 50 -183 0 -183 0 -19 -27z m240 -313 c25
-36 76 -119 113 -185 37 -66 76 -132 87 -147 11 -16 16 -32 13 -38 -13 -21
-550 -7 -541 15 15 40 270 435 276 428 4 -4 27 -37 52 -73z"/>
<path d="M28525 14752 c-3 -3 -5 -39 -5 -80 l0 -75 648 6 c356 4 746 11 868
16 121 6 526 15 900 21 373 7 785 15 914 19 l235 6 -210 8 c-1358 48 -3334 94
-3350 79z"/>
<path d="M11545 14739 c-105 -4 -548 -15 -985 -23 -687 -14 -1603 -41 -1665
-49 -43 -6 423 -17 920 -23 286 -3 750 -12 1030 -20 281 -8 752 -18 1048 -21
l537 -6 0 76 0 77 -347 -2 c-192 0 -434 -5 -538 -9z"/>
</g>
</svg>
