<?xml version="1.0" standalone="no"?>
<!DOCTYPE svg PUBLIC "-//W3C//DTD SVG 20010904//EN"
 "http://www.w3.org/TR/2001/REC-SVG-20010904/DTD/svg10.dtd">
<svg version="1.0" xmlns="http://www.w3.org/2000/svg"
 width="2048.000000pt" height="2048.000000pt" viewBox="0 0 2048.000000 2048.000000"
 preserveAspectRatio="xMidYMid meet">

<g transform="translate(0.000000,2048.000000) scale(0.100000,-0.100000)"
fill="currentColor" stroke="none">
<path d="M10135 16367 c-119 -40 -239 -147 -343 -304 -320 -489 -523 -1272
-582 -2253 -5 -91 -10 -384 -10 -652 l0 -488 -166 -122 c-92 -68 -265 -196
-385 -285 -120 -90 -221 -163 -224 -163 -3 0 -5 33 -5 73 -1 180 -41 291 -134
373 -94 82 -124 88 -406 89 l-245 0 -63 -29 c-80 -37 -161 -122 -194 -203 -23
-58 -23 -62 -28 -579 l-5 -522 -70 -54 c-168 -129 -576 -428 -584 -428 -5 0
-10 50 -10 114 0 87 -5 128 -20 170 -35 99 -89 164 -176 209 l-60 32 -256 3
c-241 3 -258 2 -312 -18 -75 -28 -163 -110 -202 -187 l-30 -58 -5 -532 -5
-532 -600 -446 c-330 -245 -630 -468 -667 -496 -79 -58 -147 -139 -189 -227
-53 -110 -59 -161 -59 -545 0 -401 1 -405 77 -439 31 -13 54 -17 76 -12 31 7
179 69 384 162 59 27 306 138 548 247 242 109 685 309 985 445 300 136 651
295 780 353 129 58 300 135 380 172 80 37 285 129 455 205 171 76 348 157 394
179 l85 41 507 0 507 0 6 -72 c3 -40 13 -260 21 -488 40 -1064 83 -1882 120
-2290 16 -167 72 -638 81 -675 4 -17 -14 -35 -98 -95 -251 -181 -1011 -739
-1233 -905 -145 -109 -217 -185 -260 -277 -54 -113 -65 -183 -65 -418 0 -203
0 -206 25 -242 33 -49 83 -64 146 -44 62 19 701 282 1373 565 197 83 362 151
367 151 4 0 13 -19 19 -42 29 -114 135 -422 170 -495 45 -96 120 -181 186
-212 58 -28 153 -28 212 -1 66 30 136 109 184 208 38 81 178 487 178 518 0 26
25 25 86 -2 67 -30 715 -302 964 -404 91 -37 287 -118 435 -180 276 -115 324
-128 373 -101 13 7 32 27 42 44 18 29 20 52 20 243 0 175 -3 223 -19 286 -44
173 -116 268 -314 412 -56 42 -201 148 -322 238 -419 308 -671 492 -830 606
-88 62 -161 120 -163 128 -2 8 6 85 17 171 20 156 41 332 61 528 35 346 93
1515 125 2505 3 96 8 212 11 258 l6 82 505 0 505 0 177 -81 c97 -45 255 -116
351 -159 186 -82 398 -178 1240 -560 289 -131 656 -297 815 -368 160 -71 448
-201 640 -287 193 -87 449 -202 570 -256 121 -55 230 -99 243 -99 40 0 91 28
112 62 19 31 20 50 20 394 0 328 -2 368 -20 439 -23 89 -70 180 -128 245 -22
25 -218 178 -437 340 -724 538 -890 662 -910 681 -19 19 -20 36 -25 542 l-5
522 -32 67 c-38 81 -97 142 -172 177 l-56 26 -270 0 -270 0 -52 -27 c-140 -74
-203 -200 -203 -405 0 -57 -2 -103 -4 -103 -6 0 -616 458 -643 483 l-22 20 -3
521 -3 521 -27 57 c-33 71 -102 146 -166 181 -71 39 -167 50 -392 45 -185 -4
-198 -5 -252 -30 -79 -37 -142 -98 -181 -177 -30 -62 -32 -72 -35 -198 -2 -73
-8 -133 -13 -133 -11 0 -687 498 -751 554 l-28 24 0 511 c0 282 -5 589 -10
684 -47 787 -229 1554 -481 2026 -77 145 -144 238 -238 332 -112 111 -171 141
-291 146 -52 2 -100 -2 -125 -10z m152 -238 c155 -59 367 -437 506 -904 120
-404 190 -809 229 -1330 16 -216 16 -1611 -1 -2215 -16 -560 -97 -2880 -116
-3325 -30 -685 -72 -1329 -110 -1710 -52 -516 -176 -1196 -307 -1685 -36 -136
-107 -340 -118 -340 -4 0 -8 455 -9 1012 -2 903 -4 1015 -18 1039 -21 36 -63
59 -108 59 -30 0 -45 -8 -76 -39 l-39 -39 0 -1016 c0 -566 -4 -1016 -9 -1016
-22 0 -116 315 -190 642 -240 1054 -300 1743 -396 4513 -69 2011 -78 2387 -72
3320 4 840 5 858 57 1265 57 450 183 938 327 1270 116 267 234 435 348 494 35
19 63 20 102 5z m-2192 -3755 c65 -30 69 -46 71 -267 l2 -197 -271 -201 c-148
-110 -276 -203 -283 -206 -12 -4 -14 62 -14 394 0 525 -18 493 278 493 148 0
191 -3 217 -16z m4722 -4 c69 -42 68 -31 71 -472 2 -277 0 -398 -8 -398 -6 0
-61 37 -123 82 -194 141 -415 307 -431 324 -13 13 -16 45 -16 195 0 203 8 236
62 269 30 18 50 20 223 20 171 0 193 -2 222 -20z m-3597 -725 c6 -275 19 -743
30 -1040 11 -297 20 -577 20 -622 l0 -83 -525 0 c-491 0 -527 -1 -572 -19 -26
-10 -165 -72 -308 -136 -143 -65 -393 -177 -555 -250 -162 -73 -486 -219 -720
-325 -234 -105 -598 -270 -810 -365 -212 -95 -421 -190 -465 -210 -44 -20
-188 -86 -320 -145 -132 -60 -329 -149 -439 -199 -109 -50 -200 -91 -203 -91
-2 0 -3 118 -1 263 l3 262 29 62 c36 79 73 113 311 288 105 77 363 268 575
424 648 479 1295 957 1495 1104 105 77 244 181 310 232 66 50 176 132 245 182
69 49 373 274 676 499 655 485 869 644 1058 782 l141 103 7 -108 c4 -59 12
-333 18 -608z m2166 642 c130 -92 353 -257 744 -547 190 -141 534 -395 765
-565 231 -170 538 -397 681 -505 286 -213 464 -345 861 -636 144 -106 342
-253 440 -326 98 -74 300 -224 448 -333 734 -539 747 -550 785 -651 18 -50 20
-78 20 -310 0 -201 -3 -255 -12 -251 -7 3 -112 50 -233 105 -121 55 -341 155
-490 222 -148 67 -454 206 -680 307 -225 102 -439 199 -475 215 -36 17 -173
79 -305 138 -811 364 -1072 482 -1345 606 l-305 139 -537 3 -538 3 0 22 c0 12
9 263 20 557 21 572 35 1066 46 1563 4 169 10 307 14 307 4 0 47 -28 96 -63z
m-4998 -1204 c48 -36 52 -54 52 -261 l0 -193 -281 -209 c-155 -116 -286 -210
-291 -210 -5 0 -7 172 -6 409 l3 409 25 27 c42 46 64 50 274 49 181 -1 199 -2
224 -21z m8161 9 c70 -35 71 -39 71 -484 0 -219 -3 -398 -6 -398 -7 0 -326
233 -476 348 l-98 74 0 187 c0 288 3 291 290 291 156 0 190 -3 219 -18z
m-4960 -5430 c19 -97 51 -256 72 -352 22 -96 39 -180 39 -186 0 -6 -42 -28
-92 -49 -142 -58 -720 -299 -1130 -471 -201 -85 -370 -154 -373 -154 -4 0 -5
53 -3 118 3 100 7 125 29 172 38 82 65 109 242 238 89 65 313 229 497 363 184
135 412 302 505 372 94 69 172 126 175 126 3 1 20 -79 39 -177z m1500 63 c52
-37 156 -113 230 -168 121 -90 358 -263 793 -580 167 -121 191 -145 231 -222
29 -56 31 -69 35 -184 3 -102 2 -123 -9 -118 -8 3 -192 79 -409 170 -217 90
-534 223 -705 294 -170 71 -347 144 -392 162 -46 18 -83 34 -83 35 0 0 24 111
54 246 30 135 61 286 70 335 9 50 19 103 22 118 l6 28 31 -24 c18 -13 75 -54
126 -92z"/>
<path d="M10135 15165 c-83 -18 -146 -47 -240 -110 -109 -73 -172 -135 -180
-178 -14 -72 49 -147 123 -147 43 0 65 12 137 77 33 30 89 68 125 86 56 28 75
32 140 32 95 -1 157 -27 262 -112 93 -75 108 -83 148 -83 73 0 127 65 117 140
-6 50 -31 78 -139 160 -169 128 -328 172 -493 135z"/>
</g>
</svg>
