<?xml version="1.0" standalone="no"?>
<!DOCTYPE svg PUBLIC "-//W3C//DTD SVG 20010904//EN"
 "http://www.w3.org/TR/2001/REC-SVG-20010904/DTD/svg10.dtd">
<svg version="1.0" xmlns="http://www.w3.org/2000/svg"
 width="2048.000000pt" height="2048.000000pt" viewBox="0 0 2048.000000 2048.000000"
 preserveAspectRatio="xMidYMid meet">

<g transform="translate(0.000000,2048.000000) scale(0.100000,-0.100000)"
fill="currentColor" stroke="none">
<path d="M13465 14288 c-67 -35 -405 -305 -552 -442 -144 -133 -189 -230 -162
-343 16 -66 129 -271 204 -371 75 -99 103 -115 305 -167 235 -61 312 -87 435
-150 275 -140 423 -314 441 -519 5 -52 2 -68 -18 -105 -14 -27 -37 -52 -59
-62 -43 -23 -399 -121 -415 -115 -6 2 -79 141 -162 308 -95 191 -162 314 -181
332 -54 51 -79 45 -361 -98 -137 -69 -254 -126 -259 -126 -4 0 -29 35 -54 78
-110 187 -259 301 -494 376 -277 88 -900 223 -1266 272 -153 21 -493 24 -627
5 -112 -15 -327 -69 -423 -105 -227 -87 -404 -203 -588 -386 -110 -109 -153
-161 -225 -270 -49 -75 -109 -172 -132 -217 l-42 -81 -68 -8 c-37 -4 -159 -4
-272 0 -515 16 -895 90 -1555 301 l-170 55 -43 82 c-111 214 -230 413 -278
467 -54 59 -137 111 -209 130 -65 17 -194 29 -470 46 -368 22 -842 52 -1180
75 -447 31 -521 27 -585 -27 -43 -36 -60 -74 -60 -136 0 -68 22 -103 170 -267
62 -69 162 -180 223 -247 112 -125 167 -170 241 -197 22 -9 100 -36 171 -62
303 -107 658 -308 935 -528 131 -104 280 -244 440 -414 136 -144 239 -235 334
-295 28 -18 176 -106 329 -196 152 -89 277 -166 277 -169 0 -4 -13 -18 -29
-32 -16 -14 -190 -167 -386 -340 -196 -173 -362 -319 -369 -324 -7 -5 -67 31
-171 102 -88 61 -252 174 -365 251 -113 77 -290 199 -393 270 -104 72 -214
140 -245 151 -61 23 -688 160 -731 160 -37 0 -86 -33 -99 -66 -21 -52 -125
-637 -126 -709 -1 -79 14 -114 91 -223 25 -35 43 -64 41 -66 -324 -233 -515
-456 -678 -791 -113 -231 -172 -434 -199 -687 -53 -481 84 -975 386 -1401 72
-101 322 -354 423 -429 483 -354 1035 -479 1618 -367 769 148 1434 816 1584
1592 12 62 23 113 24 115 3 5 145 -91 353 -236 l163 -115 -123 -116 c-266
-249 -261 -243 -266 -292 -6 -60 22 -104 75 -119 28 -7 832 -9 2640 -8 l2601
3 30 29 c16 16 33 41 36 55 3 14 -10 132 -29 261 -51 347 -96 817 -96 1001 0
202 75 424 199 589 45 59 290 300 306 300 4 0 -14 -37 -38 -82 -160 -295 -234
-577 -244 -929 -9 -322 33 -551 154 -844 150 -360 439 -703 778 -925 188 -122
464 -236 680 -279 675 -135 1342 66 1825 549 316 314 500 667 582 1115 19 99
23 156 22 320 0 213 -8 287 -54 480 -102 430 -337 812 -670 1089 -47 39 -87
75 -90 80 -3 5 17 14 45 21 67 18 105 60 105 119 0 30 -7 52 -22 71 -60 77
-439 279 -647 345 -253 81 -503 116 -766 107 l-160 -5 45 40 c57 51 260 215
365 295 141 106 183 120 410 138 118 9 179 29 230 76 98 91 112 201 52 430
-134 514 -449 1044 -959 1614 -352 393 -855 839 -1243 1101 -186 126 -192 128
-260 92z m192 -324 c381 -278 695 -551 984 -855 163 -171 312 -340 305 -346
-2 -2 -62 36 -132 84 -336 229 -680 420 -1113 617 -133 61 -415 175 -520 211
-36 12 -66 26 -67 31 -5 17 387 344 412 344 7 0 66 -39 131 -86z m-457 -545
c593 -228 1145 -513 1554 -802 319 -225 607 -511 788 -784 62 -93 124 -246
169 -421 34 -132 35 -152 12 -181 -16 -19 -34 -22 -173 -32 l-155 -10 -110 49
c-408 183 -1210 414 -1692 487 -24 4 -43 10 -43 14 0 4 24 13 54 20 129 29
510 143 557 166 138 71 223 235 204 400 -10 89 -60 230 -113 315 -57 92 -172
209 -272 277 -160 108 -402 208 -639 264 -69 17 -138 35 -154 41 -27 10 -81
84 -145 199 -37 65 -39 74 -14 64 9 -4 87 -34 172 -66z m-8435 -409 c231 -16
492 -34 580 -40 863 -54 814 -50 875 -81 67 -33 90 -68 263 -395 l95 -180 -21
-60 c-16 -44 -21 -84 -21 -159 -1 -92 1 -105 31 -167 18 -39 53 -88 80 -116
53 -53 109 -83 968 -517 270 -136 641 -325 825 -420 184 -95 400 -205 480
-245 80 -40 147 -74 149 -76 3 -2 -15 -32 -39 -67 -24 -34 -106 -156 -182
-270 -100 -150 -142 -206 -151 -199 -15 12 -963 572 -1552 917 -562 329 -618
364 -700 434 -44 38 -113 107 -154 155 -183 215 -534 510 -817 688 -203 127
-488 263 -734 349 -68 23 -133 52 -145 63 -13 12 -98 107 -191 211 -92 105
-172 192 -176 193 -4 2 -8 8 -8 12 0 5 28 7 63 4 34 -3 251 -18 482 -34z
m6016 -75 c243 -23 520 -77 965 -186 386 -94 482 -131 581 -222 43 -39 133
-172 133 -196 0 -6 -561 -291 -1247 -632 -1894 -941 -1958 -973 -1985 -965
-49 13 -822 415 -808 420 36 13 309 88 450 124 223 58 265 76 327 137 40 41
55 65 68 110 33 113 5 190 -136 363 l-91 113 33 62 c192 362 412 585 723 732
283 135 591 178 987 140z m2513 -751 c65 -129 117 -237 115 -238 -6 -4 -311
-89 -471 -131 -197 -51 -231 -65 -422 -164 -94 -48 -295 -152 -446 -231 -256
-133 -558 -288 -1261 -650 -157 -80 -317 -167 -355 -192 -215 -139 -339 -304
-382 -508 l-17 -83 -61 -13 c-141 -28 -263 -95 -373 -204 -127 -125 -196 -274
-207 -449 -13 -206 61 -403 211 -556 83 -84 179 -144 304 -189 l91 -32 -51
-73 c-55 -79 -113 -126 -187 -153 -41 -15 -93 -17 -403 -18 l-356 0 -6 53 c-4
28 -32 178 -62 331 -108 545 -120 624 -120 801 0 187 17 280 71 390 19 39 119
195 222 349 l187 279 790 389 c435 214 1301 645 1925 957 624 312 1137 568
1140 569 3 1 58 -104 124 -234z m-6416 -9 c184 -66 569 -173 779 -216 302 -61
767 -103 1073 -97 l124 3 93 -115 c97 -120 114 -150 93 -175 -17 -20 -126 -54
-463 -141 -158 -41 -328 -87 -378 -103 l-92 -30 -631 320 c-656 333 -684 350
-704 421 -12 43 5 158 24 158 7 0 44 -11 82 -25z m6342 -621 c342 -44 959
-178 1323 -289 141 -42 587 -207 587 -216 0 -4 -42 -38 -92 -77 -51 -39 -183
-144 -293 -234 -111 -90 -259 -210 -330 -268 -71 -58 -248 -204 -394 -325
-146 -121 -354 -292 -461 -380 -586 -478 -735 -629 -849 -860 -109 -222 -136
-408 -111 -775 13 -191 45 -485 75 -690 13 -91 21 -168 16 -173 -4 -4 -97 -6
-206 -5 l-198 3 -22 130 c-133 778 -605 1414 -1340 1803 -82 44 -170 93 -195
108 -87 56 -331 348 -394 472 -10 19 -24 65 -32 103 -40 191 60 374 277 508
46 28 188 104 314 168 127 64 554 283 950 488 893 462 949 490 1016 509 96 27
147 27 359 0z m-8556 -894 c103 -21 191 -41 193 -44 3 -3 -84 -138 -192 -301
l-198 -295 -35 47 c-67 94 -65 82 -32 275 49 285 63 358 69 358 3 0 91 -18
195 -40z m2791 -175 c94 -54 296 -172 450 -263 599 -354 661 -390 693 -406 37
-19 36 -15 17 -121 -30 -167 -19 -337 45 -668 16 -87 52 -282 80 -432 28 -150
53 -280 56 -288 3 -10 -4 -17 -22 -21 -34 -9 -94 -50 -162 -111 l-53 -48 -72
50 c-752 521 -950 658 -1042 723 l-110 77 0 99 c0 94 -2 102 -34 162 -42 77
-80 111 -259 234 -442 305 -568 394 -571 401 -3 13 797 719 808 713 3 -2 83
-47 176 -101z m-2212 -53 c78 -54 237 -163 352 -242 116 -79 397 -272 625
-428 969 -666 890 -607 890 -669 0 -31 -10 -54 -41 -99 -22 -33 -104 -153
-181 -269 -76 -115 -147 -216 -156 -222 -8 -7 -36 -13 -61 -13 -43 0 -62 12
-268 153 -620 424 -795 544 -1103 757 -184 127 -408 282 -498 343 -118 81
-162 117 -159 128 6 23 439 659 449 659 5 0 72 -44 151 -98z m10084 -167 c113
-16 257 -51 378 -91 105 -34 308 -131 301 -142 -3 -5 -26 -12 -52 -16 -95 -13
-380 -87 -461 -121 -205 -83 -297 -184 -338 -369 -24 -108 -16 -313 24 -606
17 -123 31 -237 31 -253 0 -24 -115 -225 -130 -226 -3 -1 -107 221 -232 492
-476 1031 -530 1151 -520 1167 18 29 105 80 170 99 69 21 290 67 352 74 92 10
383 5 477 -8z m-1011 -714 c58 -123 103 -225 102 -226 -2 -1 -23 -15 -48 -30
-117 -73 -275 -224 -363 -346 -172 -242 -262 -585 -228 -869 39 -321 159 -571
380 -791 170 -170 364 -283 586 -340 101 -26 145 -32 272 -36 181 -6 304 11
463 63 385 128 701 460 819 861 129 441 13 926 -302 1259 -144 152 -351 285
-536 345 -40 13 -76 29 -78 36 -9 22 47 122 81 148 18 14 62 37 97 51 62 26
340 94 381 94 31 0 199 -116 309 -213 250 -222 433 -510 525 -831 113 -392
108 -727 -15 -1096 -265 -791 -1060 -1308 -1879 -1220 -603 65 -1149 445
-1422 990 -184 367 -233 758 -149 1180 94 469 400 906 809 1154 41 25 79 44
84 43 4 -2 55 -103 112 -226z m-4201 163 c40 -96 149 -250 284 -399 44 -49 81
-95 81 -100 0 -13 -263 -390 -295 -424 -23 -24 -25 -24 -105 -13 -259 37 -430
233 -430 492 0 142 45 255 138 348 71 71 196 131 274 132 34 0 39 -4 53 -36z
m-5444 -160 c123 -86 225 -157 227 -159 1 -1 -30 -18 -70 -37 -165 -79 -365
-260 -483 -437 -82 -124 -137 -248 -178 -401 -28 -106 -30 -129 -31 -295 -1
-199 10 -272 66 -438 138 -412 476 -726 905 -839 111 -30 129 -31 308 -32 153
-1 206 3 270 18 183 42 300 93 451 195 356 240 574 637 574 1047 0 51 4 76 13
78 6 1 46 14 88 28 l76 25 164 -114 c90 -63 165 -116 167 -118 6 -5 -30 -213
-53 -305 -33 -133 -68 -226 -137 -365 -183 -365 -473 -649 -843 -826 -274
-131 -553 -189 -841 -175 -650 30 -1252 429 -1539 1021 -151 310 -213 668
-170 986 53 404 219 763 477 1035 101 106 293 262 324 264 6 0 111 -70 235
-156z m628 -436 c168 -113 464 -316 916 -627 138 -95 254 -180 259 -188 5 -9
6 -79 3 -157 -4 -113 -10 -158 -31 -229 -111 -371 -412 -657 -787 -747 -467
-111 -956 118 -1179 551 -139 271 -155 615 -41 890 81 194 258 402 429 503 63
38 235 114 261 116 2 0 79 -50 170 -112z m10182 69 c296 -130 520 -393 606
-712 24 -90 27 -117 27 -275 0 -157 -3 -185 -26 -271 -48 -179 -141 -339 -274
-472 -95 -96 -175 -154 -285 -206 -333 -159 -717 -141 -1018 46 -393 245 -591
729 -476 1167 62 236 222 470 413 604 l61 43 30 -60 c36 -70 253 -541 301
-651 61 -141 131 -268 156 -285 72 -47 131 -22 201 87 25 40 83 130 129 200
122 187 118 176 111 293 -5 90 -49 447 -62 503 -7 31 14 29 106 -11z m-4681
-180 c424 -234 683 -459 893 -777 82 -124 190 -336 241 -474 46 -121 103 -341
112 -430 l7 -66 -2042 0 c-1122 0 -2041 3 -2040 8 0 4 60 61 132 126 73 65
258 236 411 380 153 144 291 269 305 278 24 16 64 18 466 18 484 0 523 4 640
60 97 46 169 120 290 297 221 323 450 643 460 643 5 0 62 -29 125 -63z m-3517
-276 c40 -28 201 -139 359 -248 158 -109 392 -270 519 -357 l231 -159 -24 -22
c-110 -106 -241 -215 -251 -208 -44 26 -1023 703 -1080 747 -17 13 -16 17 19
72 80 126 145 224 150 224 3 0 37 -22 77 -49z"/>
</g>
</svg>
