<?xml version="1.0" standalone="no"?>
<!DOCTYPE svg PUBLIC "-//W3C//DTD SVG 20010904//EN"
 "http://www.w3.org/TR/2001/REC-SVG-20010904/DTD/svg10.dtd">
<svg version="1.0" xmlns="http://www.w3.org/2000/svg"
 width="2048.000000pt" height="2048.000000pt" viewBox="0 0 2048.000000 2048.000000"
 preserveAspectRatio="xMidYMid meet">

<g transform="translate(0.000000,2048.000000) scale(0.100000,-0.100000)"
fill="currentColor" stroke="none">
<path d="M9765 12553 c-575 -15 -1366 -120 -2255 -299 -393 -79 -645 -142
-1540 -384 -1185 -320 -1767 -470 -1827 -470 -12 0 -55 55 -135 174 -65 96
-118 177 -118 180 0 3 83 6 185 6 201 0 224 5 264 56 15 20 21 41 21 80 0 45
-5 59 -31 88 -17 20 -47 40 -67 46 -54 14 -1529 14 -1588 -1 -29 -8 -54 -23
-74 -46 -25 -28 -30 -42 -30 -87 0 -39 6 -60 21 -80 44 -56 41 -56 513 -56
l436 0 125 -187 c68 -103 123 -189 121 -191 -2 -2 -82 -8 -178 -13 -371 -22
-627 -46 -653 -63 -38 -25 -57 -61 -57 -109 -1 -46 6 -64 169 -425 40 -90 73
-170 73 -178 0 -20 -138 -403 -156 -430 -7 -12 -45 -43 -84 -69 -77 -51 -125
-111 -146 -183 -19 -61 -18 -182 2 -261 19 -75 187 -499 290 -731 106 -240
162 -285 439 -345 61 -14 180 -41 265 -60 85 -20 302 -69 482 -109 l327 -73
74 -65 c203 -177 414 -281 654 -323 175 -31 444 -15 609 36 98 30 257 107 347
167 l76 52 3727 0 3727 0 96 -64 c163 -109 288 -160 468 -191 100 -18 308 -20
419 -4 174 24 380 106 519 208 l70 51 1243 0 1244 0 40 40 c40 39 40 41 36
103 -4 60 -7 68 -93 192 -185 268 -197 288 -191 320 3 17 67 154 142 305 75
151 139 291 141 311 6 44 -17 120 -56 181 -49 78 -332 292 -693 526 -249 161
-363 228 -614 361 -591 313 -1081 486 -1579 558 -95 14 -197 18 -491 19 l-372
1 -388 188 c-1400 678 -1981 930 -2455 1065 -445 126 -1012 196 -1494 183z
m375 -283 c564 -34 1047 -142 1555 -347 303 -123 941 -412 1495 -678 428 -206
431 -207 428 -211 -2 -1 -107 -26 -234 -55 l-231 -52 -144 80 c-79 44 -291
158 -472 253 -760 401 -1202 574 -1732 679 -289 58 -397 66 -860 66 -408 0
-503 -5 -855 -41 -521 -53 -944 -155 -1395 -337 -248 -100 -667 -288 -693
-311 -100 -89 -48 -235 89 -251 24 -3 202 -21 394 -40 552 -56 629 -65 636
-73 4 -4 50 -115 102 -247 295 -740 496 -1226 544 -1315 101 -187 250 -330
428 -411 134 -60 185 -69 550 -89 690 -39 1234 -71 1380 -80 83 -6 256 -17
385 -25 411 -26 494 -34 540 -50 61 -21 162 -99 238 -184 l63 -71 -2880 0
-2881 0 42 68 c140 228 208 463 208 717 0 393 -172 761 -472 1011 -461 384
-1100 418 -1602 87 -85 -57 -250 -214 -315 -301 -58 -77 -150 -251 -185 -351
-49 -138 -68 -245 -73 -411 -4 -114 -1 -179 11 -245 19 -111 59 -252 92 -324
13 -30 23 -55 22 -56 -3 -3 -420 90 -737 164 -96 23 -185 48 -198 56 -36 24
-75 107 -258 555 -72 175 -115 298 -115 329 0 40 28 71 114 126 80 52 104 83
130 175 9 30 42 124 73 207 l58 153 284 0 c273 0 285 1 318 22 85 52 82 195
-4 239 -21 10 -94 15 -306 19 l-279 5 -75 163 c-41 90 -72 166 -69 169 4 4 64
10 134 15 70 4 235 15 367 24 510 33 1165 28 1580 -12 599 -58 1048 -199 1416
-445 222 -148 447 -367 617 -597 167 -226 349 -576 436 -838 32 -98 65 -134
128 -141 90 -10 158 48 158 135 0 55 -93 293 -198 507 -250 509 -578 892
-1012 1180 -270 179 -656 335 -1002 404 -151 30 -410 70 -511 77 -51 4 -86 11
-84 17 3 10 94 36 622 181 328 90 1144 304 1315 345 224 53 778 159 1105 210
879 139 1358 179 1815 151z m250 -550 c620 -62 1188 -262 2035 -715 132 -71
250 -133 262 -139 64 -31 -5 -40 -297 -40 -223 0 -283 4 -680 47 -239 26 -597
63 -795 82 -357 35 -1004 101 -2120 215 -319 33 -695 71 -835 85 -311 30 -345
35 -334 44 29 25 534 202 739 260 309 86 709 139 1290 170 198 11 584 6 735
-9z m-1540 -835 c179 -19 426 -44 550 -55 124 -12 439 -44 700 -71 261 -27
592 -61 735 -75 143 -14 503 -49 800 -79 687 -69 706 -70 915 -56 237 17 440
50 725 121 437 108 647 144 1016 171 289 21 651 -10 945 -81 541 -131 1163
-418 1781 -822 172 -113 214 -148 161 -135 -13 4 -210 31 -438 62 -228 31
-602 82 -831 113 l-417 58 -73 68 c-168 155 -381 264 -624 317 -94 21 -381 18
-485 -5 -297 -64 -553 -220 -725 -440 -134 -172 -216 -346 -260 -557 -59 -276
-4 -610 142 -857 24 -41 43 -76 43 -78 0 -2 -173 -4 -384 -4 l-383 0 -204 205
c-213 215 -279 267 -390 309 -99 37 -157 44 -584 66 -214 11 -536 30 -715 40
-179 11 -404 25 -500 30 -96 6 -272 17 -390 25 -118 8 -276 17 -350 20 -74 4
-161 13 -192 20 -195 48 -341 186 -457 435 -38 82 -267 645 -397 975 -34 88
-76 193 -93 234 -17 41 -31 77 -31 80 0 8 17 7 410 -34z m-3126 -595 c201 -44
364 -131 517 -277 127 -122 226 -283 273 -445 149 -518 -88 -1039 -576 -1268
-117 -54 -228 -80 -374 -87 -316 -14 -562 83 -795 316 -198 198 -301 445 -302
721 -3 498 318 909 805 1035 125 32 315 34 452 5z m9079 -159 c244 -64 435
-200 575 -409 190 -285 217 -647 72 -951 -55 -114 -111 -191 -211 -286 -190
-181 -381 -263 -637 -273 -138 -5 -237 7 -340 42 -327 112 -565 365 -647 691
-45 175 -43 323 6 504 97 361 412 639 794 702 86 14 301 3 388 -20z m1317
-461 c173 -22 387 -52 475 -65 88 -13 304 -42 480 -64 388 -49 514 -67 520
-72 2 -3 -11 -36 -30 -74 -229 -464 -228 -460 -233 -537 -4 -70 -3 -76 38
-153 23 -44 64 -110 91 -147 27 -37 49 -70 49 -73 0 -3 -427 -5 -950 -5 -522
0 -950 2 -950 5 0 2 17 30 37 62 51 80 109 218 140 332 35 131 43 362 18 512
-16 97 -59 239 -92 303 l-15 29 53 -6 c30 -3 196 -24 369 -47z"/>
</g>
</svg>
